<svg width="60" height="60" viewBox="0 0 60 60" fill="none" xmlns="http://www.w3.org/2000/svg">
<rect width="60" height="60" rx="30" fill="white"/>
<path d="M30 52.5C40.3553 52.5 48.75 44.1053 48.75 33.75C48.75 23.3947 40.3553 15 30 15C19.6447 15 11.25 23.3947 11.25 33.75C11.25 44.1053 19.6447 52.5 30 52.5Z" fill="#F8EE00"/>
<path d="M30 25V35L33.5 38.925" stroke="black" stroke-width="3" stroke-linecap="round" stroke-linejoin="round"/>
<path d="M43.25 20.5L47 16.75M16.75 20.5L13 16.75M30 15V7.5M30 15C33.7084 15 37.3335 16.0997 40.4169 18.1599C43.5004 20.2202 45.9036 23.1486 47.3227 26.5747C48.7419 30.0008 49.1132 33.7708 48.3897 37.4079C47.6662 41.0451 45.8805 44.386 43.2582 47.0083C40.636 49.6305 37.2951 51.4163 33.6579 52.1397C30.0208 52.8632 26.2508 52.4919 22.8247 51.0727C19.3986 49.6536 16.4702 47.2504 14.4099 44.1669C12.3497 41.0835 11.25 37.4584 11.25 33.75C11.25 28.7772 13.2254 24.0081 16.7417 20.4917C20.2581 16.9754 25.0272 15 30 15ZM22.5 7.5H37.5" stroke="black" stroke-width="3" stroke-linecap="round" stroke-linejoin="round"/>
</svg>
