<svg width="70" height="70" viewBox="0 0 70 70" fill="none" xmlns="http://www.w3.org/2000/svg">
<g clip-path="url(#clip0_8_149)">
<path d="M35.1312 0C32.0373 0 29.0737 0.701097 27.1211 2.9235C25.1685 5.14591 25.1058 7.51543 24.9928 8.95713C24.8798 10.3988 24.7858 11.2962 24.5679 11.8521C24.3499 12.4081 24.1702 12.8328 22.8067 13.6213C21.4432 14.4098 20.9866 14.353 20.397 14.2641C19.8074 14.1752 18.9849 13.8084 17.682 13.1856C16.3791 12.5628 14.2986 11.4322 11.4009 12.0148C8.50328 12.5975 6.41523 14.8178 4.86828 17.5018C3.32132 20.1858 2.44596 23.1074 3.39104 25.9125C4.33611 28.7176 6.35349 29.9572 7.54342 30.7761C8.73334 31.5949 9.46182 32.1249 9.83345 32.5919C10.2051 33.0589 10.4826 33.427 10.4826 35.0041C10.4826 36.5812 10.2051 36.9493 9.83345 37.4163C9.46182 37.8833 8.73334 38.4133 7.54342 39.2321C6.35349 40.051 4.33611 41.2906 3.39104 44.0957C2.44596 46.9008 3.32132 49.8224 4.86828 52.5064C6.41523 55.1904 8.50328 57.4107 11.4009 57.9934C14.2986 58.576 16.3791 57.4454 17.682 56.8226C18.9849 56.1998 19.8074 55.833 20.397 55.7441C20.9866 55.6552 21.4432 55.5984 22.8067 56.3869C24.1702 57.1755 24.3499 57.6002 24.5679 58.1561C24.7858 58.712 24.8798 59.6094 24.9928 61.0511C25.1058 62.4928 25.1685 64.8623 27.1211 67.0847C29.0737 69.3071 32.0373 70.0082 35.1312 70.0082C38.2251 70.0082 41.1887 69.3071 43.1413 67.0847C45.0939 64.8623 45.1566 62.4928 45.2696 61.0511C45.3826 59.6094 45.4766 58.712 45.6946 58.1561C45.9125 57.6002 46.0923 57.1755 47.4557 56.3869C48.8192 55.5984 49.2758 55.6552 49.8654 55.7441C50.455 55.833 51.2775 56.1998 52.5804 56.8226C53.8833 57.4454 55.9638 58.576 58.8615 57.9934C61.7592 57.4107 63.8472 55.1904 65.3941 52.5064C66.9411 49.8224 67.8165 46.9008 66.8714 44.0957C65.9263 41.2906 63.9089 40.051 62.719 39.2321C61.5291 38.4133 60.8006 37.8833 60.429 37.4163C60.0573 36.9493 59.7798 36.5812 59.7798 35.0041C59.7798 33.427 60.0573 33.0589 60.429 32.5919C60.8006 32.1249 61.5291 31.5949 62.719 30.7761C63.9089 29.9572 65.9263 28.7176 66.8714 25.9125C67.8165 23.1074 66.9411 20.1858 65.3941 17.5018C63.8472 14.8178 61.7592 12.5975 58.8615 12.0148C55.9638 11.4322 53.8833 12.5628 52.5804 13.1856C51.2775 13.8084 50.455 14.1752 49.8654 14.2641C49.2758 14.353 48.8192 14.4098 47.4557 13.6213C46.0923 12.8328 45.9125 12.4081 45.6946 11.8521C45.4766 11.2962 45.3826 10.3988 45.2696 8.95713C45.1566 7.51543 45.0939 5.14591 43.1413 2.9235C41.1887 0.701097 38.2251 0 35.1312 0ZM35.134 19.8352C43.5571 19.8352 50.3002 26.5769 50.3002 35.0041C50.3002 43.4313 43.5571 50.173 35.134 50.173C26.7108 50.173 19.9677 43.4313 19.9677 35.0041C19.9677 26.5769 26.7108 19.8352 35.134 19.8352Z" />
<path d="M35.1313 25.672C30.0193 25.672 25.7979 29.8959 25.7979 35.0041C25.7979 40.1123 30.0193 44.3362 35.1313 44.3362C40.2433 44.3362 44.4645 40.1123 44.4645 35.0041C44.4645 29.8959 40.2433 25.672 35.1313 25.672Z"/>
</g>
<defs>
<clipPath id="clip0_8_149">
<rect width="70" height="70" fill="white"/>
</clipPath>
</defs>
</svg>
